# xmcd
#
# Track frame offsets: 
#        150
#        14447
#        29047
#        43421
#        58008
#        72384
#        87221
#        105228
#        119281
#        132572
#
# Disc length: 1962 seconds
#
# Revision: 0
# Processed by: cddbd v1.5.2PL0 Copyright (c) Steve Scherf et al.
# Submitted via: ExactAudioCopyFreeDBPlugin 1.0
#
DISCID=8f07a80a
DTITLE=Dobie Gray - Three Albums On Two Discs
DYEAR=2011
DGENRE=
TTITLE0=Hey Dixie
TTITLE1=How Can You Live All Alone
TTITLE2=So High (Rock Me Baby and Roll Me Away)
TTITLE3=Watch Out For Lucy
TTITLE4=Old Time Feeling
TTITLE5=Turning On You
TTITLE6=Roll On Sweet Mississippi
TTITLE7=Can You Feel It
TTITLE8=Performance
TTITLE9=The Music's Real (Mentor's Song)
EXTD=
EXTT0=
EXTT1=
EXTT2=
EXTT3=
EXTT4=
EXTT5=
EXTT6=
EXTT7=
EXTT8=
EXTT9=
PLAYORDER=
